<svg width="48" height="48" viewBox="0 0 48 48" fill="none" xmlns="http://www.w3.org/2000/svg">
<g clip-path="url(#clip0_29:260)">
<path d="M47.9529 14.1121C47.8405 11.5617 47.428 9.80831 46.8372 8.28897C46.2277 6.67623 45.29 5.23235 44.0615 4.03204C42.8612 2.81305 41.4078 1.86584 39.8138 1.26587C38.2856 0.675059 36.5414 0.262625 33.991 0.150176C31.4215 0.0282037 30.6058 0 24.0889 0C17.572 0 16.7563 0.0282037 14.1963 0.140652C11.6459 0.253101 9.89253 0.665902 8.37356 1.25635C6.76045 1.86584 5.31657 2.80353 4.11626 4.03204C2.89728 5.23235 1.95044 6.68575 1.3501 8.27982C0.759287 9.80831 0.346853 11.5522 0.234404 14.1026C0.112432 16.6721 0.0842285 17.4878 0.0842285 24.0047C0.0842285 30.5216 0.112432 31.3373 0.224881 33.8972C0.33733 36.4477 0.75013 38.2011 1.34094 39.7204C1.95044 41.3331 2.89728 42.777 4.11626 43.9773C5.31657 45.1963 6.76998 46.1435 8.36404 46.7435C9.89253 47.3343 11.6364 47.7468 14.1872 47.8592C16.7468 47.972 17.5628 47.9999 24.0797 47.9999C30.5966 47.9999 31.4123 47.972 33.9723 47.8592C36.5227 47.7468 38.2761 47.3343 39.7951 46.7435C43.0209 45.4963 45.5714 42.9459 46.8185 39.7204C47.409 38.1919 47.8218 36.4477 47.9342 33.8972C48.0467 31.3373 48.0749 30.5216 48.0749 24.0047C48.0749 17.4878 48.0654 16.6721 47.9529 14.1121ZM43.6304 33.7097C43.5271 36.0539 43.1334 37.3198 42.8052 38.1637C41.9986 40.2548 40.339 41.9144 38.2479 42.721C37.404 43.0492 36.129 43.4429 33.7939 43.5459C31.2622 43.6587 30.5029 43.6865 24.0984 43.6865C17.694 43.6865 16.9252 43.6587 14.4026 43.5459C12.0584 43.4429 10.7925 43.0492 9.94858 42.721C8.90797 42.3364 7.96076 41.7269 7.19194 40.9299C6.3949 40.1515 5.78541 39.2138 5.40082 38.1732C5.07263 37.3293 4.67887 36.0539 4.57595 33.7192C4.46313 31.1875 4.4353 30.4278 4.4353 24.0234C4.4353 17.6189 4.46313 16.8501 4.57595 14.3279C4.67887 11.9837 5.07263 10.7178 5.40082 9.87388C5.78541 8.8329 6.3949 7.88606 7.20146 7.11687C7.97944 6.31984 8.91712 5.71034 9.9581 5.32611C10.802 4.99792 12.0774 4.60417 14.4121 4.50088C16.9438 4.38843 17.7035 4.36023 24.1076 4.36023C30.5215 4.36023 31.2809 4.38843 33.8034 4.50088C36.1476 4.60417 37.4135 4.99792 38.2574 5.32611C39.298 5.71034 40.2452 6.31984 41.0141 7.11687C41.8111 7.89522 42.4206 8.8329 42.8052 9.87388C43.1334 10.7178 43.5271 11.9928 43.6304 14.3279C43.7429 16.8596 43.7711 17.6189 43.7711 24.0234C43.7711 30.4278 43.7429 31.178 43.6304 33.7097Z" fill="#FF6A39"/>
<path d="M24.0891 11.6726C17.2817 11.6726 11.7585 17.1954 11.7585 24.0031C11.7585 30.8109 17.2817 36.3337 24.0891 36.3337C30.8968 36.3337 36.4196 30.8109 36.4196 24.0031C36.4196 17.1954 30.8968 11.6726 24.0891 11.6726ZM24.0891 32.0017C19.6728 32.0017 16.0906 28.4198 16.0906 24.0031C16.0906 19.5865 19.6728 16.0046 24.0891 16.0046C28.5057 16.0046 32.0876 19.5865 32.0876 24.0031C32.0876 28.4198 28.5057 32.0017 24.0891 32.0017Z" fill="#FF6A39"/>
<path d="M39.7864 11.1865C39.7864 12.7761 38.4975 14.0651 36.9074 14.0651C35.3178 14.0651 34.0288 12.7761 34.0288 11.1865C34.0288 9.59645 35.3178 8.30786 36.9074 8.30786C38.4975 8.30786 39.7864 9.59645 39.7864 11.1865Z" fill="#FF6A39"/>
</g>
<defs>
<clipPath id="clip0_29:260">
<rect width="48" height="48" fill="white"/>
</clipPath>
</defs>
</svg>
