<svg width="218" height="194" viewBox="0 0 218 194" fill="none" xmlns="http://www.w3.org/2000/svg">
<path d="M217 1H109H1V111H217V1Z" fill="white"/>
<path d="M1 107V-1H217V192L1 110V107Z" fill="white" stroke="#FF6A39" stroke-width="2"/>
<g clip-path="url(#clip0_89:659)">
<path d="M68.5574 56.1035C66.3262 56.1035 64.5206 57.9018 64.5206 60.1207C64.5206 62.3403 66.3262 64.1411 68.5574 64.1411C70.7874 64.1411 72.5955 62.3403 72.5955 60.1207C72.5955 57.9018 70.7874 56.1035 68.5574 56.1035ZM55.5849 44.8017H41.0668H39.045L31.4693 38.0136H21.0454V45.5778H31.4693L39.045 52.3657H53.5605H55.5849C59.4863 52.3657 59.97 54.1119 60.0309 54.5473C59.97 54.9815 59.4863 56.7275 55.5849 56.7275H53.5605H39.045L31.4693 49.9416H21.0454V57.5056H31.4693L39.045 64.293H55.5849C58.0444 64.293 60.0402 62.3066 60.0402 59.856V49.2382C60.0402 46.7868 58.0444 44.8017 55.5849 44.8017ZM31.4693 26.087H21.0454V33.6505H31.4693L39.045 40.4384H60.0402V32.8749H39.045L31.4693 26.087Z" fill="#E76B3C"/>
<path d="M90.3672 76.638H85.2639V70.3914H89.6622C93.3282 70.3914 93.9049 72.2025 93.9049 73.5136C93.9049 74.8244 92.7601 76.638 90.3672 76.638ZM92.4522 65.9164H85.2639V60.9113H98.0344L100.928 55.9895H77.0417V81.1143H92.4522C97.7634 81.1143 101.867 78.4192 101.867 73.2381C101.867 68.0607 97.0799 65.9164 92.4522 65.9164Z" fill="#633F34"/>
<path d="M184.26 66.9203L195.345 55.9895H185.124L174.66 67.1272L186.373 81.1143H197.01L184.26 66.9203ZM166.094 81.1143H174.321V55.9895H166.094V81.1143Z" fill="#633F34"/>
<path d="M117.559 67.2818H113.163V60.7051H118.263C120.657 60.7051 121.802 62.613 121.802 63.993C121.802 65.3729 121.227 67.2818 117.559 67.2818ZM120.348 55.9898H104.937V81.1143H113.163V71.9964H120.348C124.978 71.9964 129.765 69.738 129.765 64.2821C129.765 58.8269 125.661 55.9898 120.348 55.9898Z" fill="#633F34"/>
<path d="M147.326 77.1757C141.154 77.1757 140.322 71.9961 140.322 69.0713C140.322 66.1442 140.331 59.9798 147.326 59.9798C154.322 59.9798 154.331 66.1442 154.331 69.0713C154.331 71.9961 153.5 77.1757 147.326 77.1757ZM147.326 55.0581C139.385 55.0581 131.628 58.3223 131.628 69.0713C131.628 79.8195 140.906 82.0449 147.326 82.0449C153.75 82.0449 163.024 79.8195 163.024 69.0713C163.024 58.3223 155.269 55.0581 147.326 55.0581Z" fill="#633F34"/>
</g>
<path d="M197.792 92V164.5L20.5 97.5V65.957" stroke="#FF6A39"/>
<path d="M20 13H197.5V45" stroke="#FF6A39"/>
<defs>
<clipPath id="clip0_89:659">
<rect width="176" height="56" fill="white" transform="translate(21 26)"/>
</clipPath>
</defs>
</svg>
