<svg width="216" height="192" viewBox="0 0 216 192" fill="none" xmlns="http://www.w3.org/2000/svg">
<path d="M216 0H0V110H216V0Z" fill="#FF6A39"/>
<path d="M0 110L216 110L216 192L0 110Z" fill="#FF6A39"/>
<path d="M196 94.1638V167L18 99.6893V68" stroke="white"/>
<path d="M18 15H196V47" stroke="white"/>
<g clip-path="url(#clip0_108_550)">
<path d="M64.5574 55.104C62.3262 55.104 60.5206 56.9023 60.5206 59.1212C60.5206 61.3408 62.3262 63.1416 64.5574 63.1416C66.7874 63.1416 68.5955 61.3408 68.5955 59.1212C68.5955 56.9023 66.7874 55.104 64.5574 55.104ZM51.5849 43.8022H37.0668H35.045L27.4693 37.0141H17.0454V44.5783H27.4693L35.045 51.3661H49.5605H51.5849C55.4863 51.3661 55.97 53.1124 56.0309 53.5478C55.97 53.982 55.4863 55.728 51.5849 55.728H49.5605H35.045L27.4693 48.9421H17.0454V56.5061H27.4693L35.045 63.2935H51.5849C54.0444 63.2935 56.0402 61.3071 56.0402 58.8564V48.2387C56.0402 45.7873 54.0444 43.8022 51.5849 43.8022ZM27.4693 25.0875H17.0454V32.651H27.4693L35.045 39.4388H56.0402V31.8754H35.045L27.4693 25.0875Z" fill="white"/>
<path d="M86.3672 75.6385H81.2639V69.3919H85.6622C89.3282 69.3919 89.9049 71.203 89.9049 72.5141C89.9049 73.8249 88.7601 75.6385 86.3672 75.6385ZM88.4522 64.9169H81.2639V59.9118H94.0344L96.9277 54.99H73.0417V80.1147H88.4522C93.7634 80.1147 97.8669 77.4197 97.8669 72.2385C97.8669 67.0612 93.0799 64.9169 88.4522 64.9169Z" fill="white"/>
<path d="M180.26 65.9203L191.345 54.9895H181.124L170.66 66.1272L182.373 80.1143H193.01L180.26 65.9203ZM162.094 80.1143H170.321V54.9895H162.094V80.1143Z" fill="white"/>
<path d="M113.559 66.2823H109.163V59.7056H114.263C116.657 59.7056 117.802 61.6135 117.802 62.9935C117.802 64.3734 117.227 66.2823 113.559 66.2823ZM116.348 54.9903H100.937V80.1147H109.163V70.9969H116.348C120.978 70.9969 125.765 68.7385 125.765 63.2826C125.765 57.8274 121.661 54.9903 116.348 54.9903Z" fill="white"/>
<path d="M143.326 76.1757C137.154 76.1757 136.322 70.9961 136.322 68.0713C136.322 65.1442 136.331 58.9798 143.326 58.9798C150.322 58.9798 150.331 65.1442 150.331 68.0713C150.331 70.9961 149.5 76.1757 143.326 76.1757ZM143.326 54.0581C135.385 54.0581 127.628 57.3223 127.628 68.0713C127.628 78.8195 136.906 81.0449 143.326 81.0449C149.75 81.0449 159.024 78.8195 159.024 68.0713C159.024 57.3223 151.269 54.0581 143.326 54.0581Z" fill="white"/>
</g>
<defs>
<clipPath id="clip0_108_550">
<rect width="176" height="56" fill="white" transform="translate(17 25)"/>
</clipPath>
</defs>
</svg>
