<svg width="176" height="56" viewBox="0 0 176 56" fill="none" xmlns="http://www.w3.org/2000/svg">
<path d="M47.5574 30.104C45.3262 30.104 43.5206 31.9023 43.5206 34.1212C43.5206 36.3408 45.3262 38.1416 47.5574 38.1416C49.7874 38.1416 51.5955 36.3408 51.5955 34.1212C51.5955 31.9023 49.7874 30.104 47.5574 30.104ZM34.5849 18.8022H20.0668H18.045L10.4693 12.0141H0.0454102V19.5783H10.4693L18.045 26.3661H32.5605H34.5849C38.4863 26.3661 38.97 28.1124 39.0309 28.5478C38.97 28.982 38.4863 30.728 34.5849 30.728H32.5605H18.045L10.4693 23.9421H0.0454102V31.5061H10.4693L18.045 38.2935H34.5849C37.0444 38.2935 39.0402 36.3071 39.0402 33.8564V23.2387C39.0402 20.7873 37.0444 18.8022 34.5849 18.8022ZM10.4693 0.0875015H0.0454102V7.65096H10.4693L18.045 14.4388H39.0402V6.87538H18.045L10.4693 0.0875015Z" fill="white"/>
<path d="M69.3672 50.6385H64.2639V44.3919H68.6622C72.3282 44.3919 72.9049 46.203 72.9049 47.5141C72.9049 48.8249 71.7601 50.6385 69.3672 50.6385ZM71.4522 39.9169H64.2639V34.9118H77.0344L79.9277 29.99H56.0417V55.1147H71.4522C76.7634 55.1147 80.8669 52.4197 80.8669 47.2385C80.8669 42.0612 76.0799 39.9169 71.4522 39.9169Z" fill="white"/>
<path d="M163.26 40.9203L174.345 29.9895H164.124L153.66 41.1272L165.373 55.1143H176.01L163.26 40.9203ZM145.094 55.1143H153.321V29.9895H145.094V55.1143Z" fill="white"/>
<path d="M96.559 41.2823H92.1632V34.7056H97.2627C99.6569 34.7056 100.802 36.6135 100.802 37.9935C100.802 39.3734 100.227 41.2823 96.559 41.2823ZM99.3477 29.9903H83.937V55.1147H92.1632V45.9969H99.3477C103.978 45.9969 108.765 43.7385 108.765 38.2826C108.765 32.8274 104.661 29.9903 99.3477 29.9903Z" fill="white"/>
<path d="M126.326 51.1757C120.154 51.1757 119.322 45.9961 119.322 43.0713C119.322 40.1442 119.331 33.9798 126.326 33.9798C133.322 33.9798 133.331 40.1442 133.331 43.0713C133.331 45.9961 132.5 51.1757 126.326 51.1757ZM126.326 29.0581C118.385 29.0581 110.628 32.3223 110.628 43.0713C110.628 53.8195 119.906 56.0449 126.326 56.0449C132.75 56.0449 142.024 53.8195 142.024 43.0713C142.024 32.3223 134.269 29.0581 126.326 29.0581Z" fill="white"/>
</svg>
