<svg width="216" height="193" viewBox="0 0 216 193" fill="none" xmlns="http://www.w3.org/2000/svg">
<path d="M216 2H108H0V112H216V2Z" fill="white"/>
<path d="M0 108V0H216V193L0 111V108Z" fill="white"/>
<path d="M196.792 93V165.5L19.5 98.5V66.957" stroke="#FF6A39"/>
<path d="M19 14H196.5V46" stroke="#FF6A39"/>
<g clip-path="url(#clip0_89_671)">
<path d="M67.5574 56.1038C65.3262 56.1038 63.5206 57.902 63.5206 60.1209C63.5206 62.3406 65.3262 64.1414 67.5574 64.1414C69.7874 64.1414 71.5955 62.3406 71.5955 60.1209C71.5955 57.902 69.7874 56.1038 67.5574 56.1038ZM54.5849 44.8019H40.0668H38.045L30.4693 38.0138H20.0454V45.578H30.4693L38.045 52.3659H52.5605H54.5849C58.4863 52.3659 58.97 54.1121 59.0309 54.5476C58.97 54.9818 58.4863 56.7277 54.5849 56.7277H52.5605H38.045L30.4693 49.9419H20.0454V57.5058H30.4693L38.045 64.2932H54.5849C57.0444 64.2932 59.0402 62.3069 59.0402 59.8562V49.2385C59.0402 46.787 57.0444 44.8019 54.5849 44.8019ZM30.4693 26.0873H20.0454V33.6507H30.4693L38.045 40.4386H59.0402V32.8751H38.045L30.4693 26.0873Z" fill="#E76B3C"/>
<path d="M89.3672 76.6383H84.2639V70.3917H88.6622C92.3282 70.3917 92.9049 72.2028 92.9049 73.5138C92.9049 74.8247 91.7601 76.6383 89.3672 76.6383ZM91.4522 65.9167H84.2639V60.9115H97.0344L99.9277 55.9898H76.0417V81.1145H91.4522C96.7634 81.1145 100.867 78.4195 100.867 73.2383C100.867 68.0609 96.0799 65.9167 91.4522 65.9167Z" fill="#633F34"/>
<path d="M183.26 66.9201L194.345 55.9893H184.124L173.66 67.127L185.373 81.114H196.01L183.26 66.9201ZM165.094 81.114H173.321V55.9893H165.094V81.114Z" fill="#633F34"/>
<path d="M116.559 67.2821H112.163V60.7054H117.263C119.657 60.7054 120.802 62.6133 120.802 63.9932C120.802 65.3732 120.227 67.2821 116.559 67.2821ZM119.348 55.9901H103.937V81.1145H112.163V71.9966H119.348C123.978 71.9966 128.765 69.7383 128.765 64.2823C128.765 58.8271 124.661 55.9901 119.348 55.9901Z" fill="#633F34"/>
<path d="M146.326 77.1757C140.154 77.1757 139.322 71.9961 139.322 69.0713C139.322 66.1442 139.331 59.9798 146.326 59.9798C153.322 59.9798 153.331 66.1442 153.331 69.0713C153.331 71.9961 152.5 77.1757 146.326 77.1757ZM146.326 55.0581C138.385 55.0581 130.628 58.3223 130.628 69.0713C130.628 79.8195 139.906 82.0449 146.326 82.0449C152.75 82.0449 162.024 79.8195 162.024 69.0713C162.024 58.3223 154.269 55.0581 146.326 55.0581Z" fill="#633F34"/>
</g>
<defs>
<clipPath id="clip0_89_671">
<rect width="176" height="56" fill="white" transform="translate(20 26)"/>
</clipPath>
</defs>
</svg>
