<svg width="176" height="56" viewBox="0 0 176 56" fill="none" xmlns="http://www.w3.org/2000/svg">
<path d="M47.557 30.1038C45.3257 30.1038 43.5201 31.902 43.5201 34.1209C43.5201 36.3406 45.3257 38.1414 47.557 38.1414C49.7869 38.1414 51.595 36.3406 51.595 34.1209C51.595 31.902 49.7869 30.1038 47.557 30.1038ZM34.5844 18.8019H20.0664H18.0445L10.4688 12.0138H0.0449219V19.578H10.4688L18.0445 26.3659H32.56H34.5844C38.4858 26.3659 38.9695 28.1121 39.0304 28.5476C38.9695 28.9818 38.4858 30.7277 34.5844 30.7277H32.56H18.0445L10.4688 23.9419H0.0449219V31.5058H10.4688L18.0445 38.2932H34.5844C37.0439 38.2932 39.0397 36.3069 39.0397 33.8562V23.2385C39.0397 20.787 37.0439 18.8019 34.5844 18.8019ZM10.4688 0.0872574H0.0449219V7.65072H10.4688L18.0445 14.4386H39.0397V6.87514H18.0445L10.4688 0.0872574Z" fill="#E76B3C"/>
<path d="M69.3665 50.6383H64.2632V44.3917H68.6615C72.3275 44.3917 72.9042 46.2028 72.9042 47.5138C72.9042 48.8247 71.7594 50.6383 69.3665 50.6383ZM71.4515 39.9167H64.2632V34.9115H77.0337L79.927 29.9898H56.041V55.1145H71.4515C76.7627 55.1145 80.8662 52.4195 80.8662 47.2383C80.8662 42.0609 76.0791 39.9167 71.4515 39.9167Z" fill="#633F34"/>
<path d="M163.26 40.9201L174.345 29.9893H164.124L153.66 41.127L165.373 55.114H176.01L163.26 40.9201ZM145.094 55.114H153.321V29.9893H145.094V55.114Z" fill="#633F34"/>
<path d="M96.5575 41.2821H92.1618V34.7054H97.2613C99.6554 34.7054 100.8 36.6133 100.8 37.9932C100.8 39.3732 100.226 41.2821 96.5575 41.2821ZM99.3463 29.9901H83.9355V55.1145H92.1618V45.9966H99.3463C103.976 45.9966 108.763 43.7383 108.763 38.2823C108.763 32.8271 104.66 29.9901 99.3463 29.9901Z" fill="#633F34"/>
<path d="M126.325 51.1757C120.153 51.1757 119.321 45.9961 119.321 43.0713C119.321 40.1442 119.33 33.9798 126.325 33.9798C133.321 33.9798 133.33 40.1442 133.33 43.0713C133.33 45.9961 132.499 51.1757 126.325 51.1757ZM126.325 29.0581C118.384 29.0581 110.627 32.3223 110.627 43.0713C110.627 53.8195 119.905 56.0449 126.325 56.0449C132.749 56.0449 142.023 53.8195 142.023 43.0713C142.023 32.3223 134.268 29.0581 126.325 29.0581Z" fill="#633F34"/>
</svg>
