<svg width="62" height="39" viewBox="0 0 62 39" fill="none" xmlns="http://www.w3.org/2000/svg">
<path d="M51.814 14.6972C51.6321 13.7342 51.2174 12.6797 50.0749 11.364C49.0847 10.2234 47.2961 9.12431 45.9335 8.38667C46.5103 9.83837 47.412 11.7238 48.471 12.5799L48.5128 12.614C49.7209 13.5912 50.4415 14.174 51.814 14.6972ZM20.127 16.7724L22.272 15.2997C22.1513 15.2075 22.0776 15.1711 21.8796 15.1028C21.7277 15.0501 21.5535 15.0141 21.3616 15.0129C21.0091 15.0107 20.723 15.1467 20.5226 15.3855C20.2863 15.6669 20.1475 16.0913 20.1292 16.6124L20.127 16.7724ZM1.68362 21.1581C1.68701 21.4007 1.73175 21.6024 1.80668 21.7675C1.91854 22.008 2.10973 22.1742 2.33483 22.28C2.60924 22.4084 2.93451 22.4604 3.24944 22.4562C3.57233 22.4515 3.87082 22.3894 4.0854 22.2928C5.49239 21.6568 6.27584 19.6011 6.71465 17.4853C7.18499 15.2175 7.24416 12.8927 7.25926 11.9549L7.29196 9.92811L11.8943 6.3537L12.4455 16.1401L17.485 0.00146484L17.5737 18.3862L19.0644 17.47C19.0164 17.198 18.9958 16.9001 19.007 16.5773C19.0339 15.8034 19.2647 15.1438 19.6597 14.673C20.0763 14.177 20.6584 13.8937 21.3662 13.8984C21.6987 13.9008 21.9942 13.9608 22.2491 14.0491C22.5779 14.163 23.0015 14.5296 23.1867 14.832C23.5676 15.4576 20.9378 17.3461 20.349 17.8207L20.3543 17.8308C20.4992 18.1077 20.7084 18.2877 20.9485 18.3653C22.0911 18.7354 22.6424 18.2078 23.192 17.54C24.2848 16.1403 25.7791 14.5127 27.0486 13.3426L27.056 15.8374C27.2688 15.6467 27.4849 15.4564 27.6695 15.3003C28.262 14.7997 29.3755 14.1341 29.3783 14.1326L30.2162 13.6575L30.2218 15.6078L30.3016 15.5417L30.5974 15.296C31.1914 14.798 32.3011 14.1341 32.3042 14.1326L33.1421 13.6575L33.1559 18.0267L34.43 17.2751C34.4033 17.0574 34.3931 16.8249 34.4017 16.5773C34.4289 15.8034 34.6595 15.1438 35.0545 14.673C35.4713 14.1766 36.0533 13.8937 36.761 13.8984C37.0933 13.9008 37.3891 13.9608 37.6439 14.0491C37.8466 14.1193 38.2902 14.329 38.4405 14.4784C38.5272 14.5445 38.9012 14.9757 38.7633 15.3653C38.4951 16.1236 36.3108 17.3645 35.7437 17.821L35.7488 17.831C35.8936 18.1077 36.103 18.2877 36.3433 18.3653C37.7002 18.8051 38.4 17.832 39.1423 16.8L39.3856 16.4641L39.3867 16.4353C39.4138 15.6612 39.7472 15.0757 40.1421 14.6048C40.5589 14.1088 41.1408 13.8256 41.8486 13.8305C43.3641 13.8031 44.0451 14.9348 44.0472 14.9375L42.9541 15.387C42.9527 15.3853 42.7597 14.9491 41.99 14.9415C41.5947 14.9377 41.2735 14.9974 41.0052 15.3173C40.7687 15.5986 40.5274 15.9491 40.5092 16.4702C40.4913 16.9816 40.5764 17.3887 40.734 17.6888C41.1167 18.419 42.3644 18.5997 42.9576 18.0771C43.2087 17.8561 43.237 17.4227 43.2299 17.1669C42.8715 17.2307 42.4866 17.2871 42.0556 17.3441L42.1585 16.2628C42.8978 16.0244 45.3031 15.0996 45.4123 14.2492H47.0966L46.2489 28.7842L48.1327 16.4468L49.0604 16.7975C49.064 16.799 50.4617 17.347 51.0624 17.2044C51.3639 17.1331 51.6429 17.0418 51.7952 16.8838C51.8702 16.8054 51.9268 16.6911 51.9564 16.5257C49.8624 15.8628 49.0285 15.1886 47.4498 13.9119L47.408 13.8779C45.1504 12.0523 43.6426 6.96259 43.6383 6.94793L43.107 5.19871L44.7906 5.94491C44.8033 5.95047 49.365 7.9843 51.349 10.2692C53.1304 12.3207 53.4575 13.8318 53.5981 15.2536C55.3134 15.9654 58.966 16.8835 61.6747 17.3395L61.6298 18.0989C58.9094 17.9401 56.2268 17.6371 53.586 16.9786C53.4813 17.419 53.2809 17.7625 53.0167 18.0376C52.5805 18.4913 52.0225 18.695 51.4519 18.8305C50.8382 18.9759 50.0223 18.8313 49.3974 18.666L45.3224 38.5656L45.4042 16.5508C45.0399 16.7006 44.6933 16.8195 44.3394 16.9185C44.6067 19.9534 40.7979 20.2329 39.7345 18.2043C39.7024 18.1428 39.6719 18.0787 39.6438 18.0124C38.7848 19.1459 37.8366 20.024 35.9957 19.4274C35.4852 19.2622 35.0531 18.9082 34.7655 18.3764L32.0403 19.9843L32.0261 15.6332C31.7725 15.8032 31.5113 15.9882 31.3216 16.1484L31.0236 16.3983C30.7699 16.6087 30.4209 16.8976 30.2262 17.0626L30.234 19.6767H29.1116L29.1 15.6332C28.8468 15.8029 28.5854 15.9882 28.3956 16.1484C28.0505 16.44 27.4039 17.0329 27.0604 17.3495L27.0676 19.6767H25.945L25.9345 15.9414C25.3057 16.6716 24.6849 17.5383 24.1148 18.2145C23.1683 19.388 22.4701 20.0326 20.6011 19.4274C20.1668 19.2871 19.7888 19.0096 19.5085 18.6019L15.9079 22.0814L15.849 9.90166L12.6949 18.3025L11.7377 18.4072V18.4071L11.3692 18.4475L10.3622 9.66856L8.9625 10.7539L8.94269 11.9811C8.9271 12.9676 8.86438 15.4128 8.36537 17.8196C7.83487 20.3778 6.80005 22.9028 4.78541 23.8133C4.37067 24.0006 3.82844 24.1196 3.26927 24.1275C2.71722 24.1354 2.13296 24.0371 1.6148 23.7946C1.04733 23.5277 0.561379 23.0987 0.269671 22.4621V22.4587C0.10492 22.0991 0.00728841 21.6742 0 21.1778L1.68362 21.1581ZM35.522 16.7724L37.6254 15.3633C37.4417 15.1016 37.061 15.0147 36.7564 15.0129C36.4042 15.0107 36.1179 15.1467 35.9175 15.3855C35.6811 15.6669 35.5424 16.0913 35.5243 16.6124L35.522 16.7724Z" fill="white"/>
</svg>
