<svg width="23" height="23" viewBox="0 0 23 23" fill="none" xmlns="http://www.w3.org/2000/svg">
<path d="M22.9497 17.8208C22.8847 17.6248 22.4708 17.336 21.7083 16.9552C21.5018 16.8352 21.2075 16.6721 20.8267 16.4651C20.4455 16.2582 20.0995 16.0675 19.7894 15.8932C19.4786 15.719 19.1874 15.5502 18.9154 15.3871C18.8719 15.3544 18.7358 15.2593 18.5071 15.101C18.2782 14.9432 18.0851 14.8261 17.9269 14.7497C17.7691 14.6738 17.6138 14.6356 17.4613 14.6356C17.2436 14.6356 16.9716 14.7908 16.645 15.101C16.3184 15.4116 16.0188 15.7489 15.7467 16.114C15.4746 16.479 15.1859 16.8163 14.8813 17.1267C14.5762 17.4372 14.3256 17.5923 14.1298 17.5923C14.0315 17.5923 13.909 17.5649 13.7621 17.5109C13.6153 17.4565 13.5036 17.4098 13.4269 17.3722C13.3509 17.3338 13.2206 17.2579 13.0353 17.1432C12.8497 17.0288 12.7465 16.9661 12.7247 16.9552C11.2329 16.1274 9.95339 15.1799 8.88606 14.113C7.81907 13.0455 6.87149 11.7662 6.04388 10.2741C6.03301 10.2523 5.97025 10.1488 5.85599 9.9638C5.74156 9.7786 5.6653 9.64809 5.62719 9.57165C5.58909 9.4955 5.5428 9.38382 5.48845 9.23683C5.43409 9.08985 5.4068 8.96741 5.4068 8.86929C5.4068 8.67339 5.56202 8.42279 5.87241 8.11784C6.18274 7.81306 6.52042 7.52436 6.8851 7.2523C7.25007 6.98025 7.58741 6.68068 7.89785 6.3541C8.20818 6.02735 8.36335 5.75524 8.36335 5.53748C8.36335 5.38512 8.32524 5.22978 8.24909 5.07193C8.17288 4.91373 8.05582 4.72069 7.89785 4.49189C7.73983 4.2632 7.64457 4.1272 7.61184 4.08344C7.44866 3.81138 7.28005 3.5201 7.10561 3.20972C6.93116 2.89939 6.74075 2.55347 6.53375 2.17237C6.32692 1.79143 6.16369 1.4973 6.04377 1.29041C5.66284 0.528259 5.3743 0.114257 5.17823 0.049147C5.10196 0.0164777 4.98754 0 4.83523 0C4.54104 0 4.15724 0.0543535 3.68357 0.163404C3.20972 0.272282 2.83685 0.386482 2.56457 0.50646C2.02006 0.735031 1.44294 1.39929 0.833039 2.499C0.277661 3.52245 0 4.53543 0 5.53719C0 5.83099 0.0190523 6.11683 0.057157 6.39478C0.0952617 6.67244 0.163347 6.98557 0.261469 7.33412C0.35942 7.68255 0.438433 7.94139 0.498164 8.10994C0.557953 8.27861 0.669578 8.58076 0.832982 9.0165C0.996157 9.45213 1.09428 9.71881 1.12695 9.81682C1.50805 10.8841 1.95999 11.8369 2.48264 12.6755C3.34257 14.0693 4.51609 15.5098 6.00252 16.9963C7.489 18.4828 8.9292 19.6562 10.3232 20.5165C11.1616 21.0391 12.1148 21.491 13.1819 21.8724C13.2799 21.9049 13.5466 22.0028 13.9821 22.1665C14.4177 22.3298 14.72 22.4414 14.8886 22.5013C15.0574 22.5613 15.3163 22.6404 15.6644 22.7385C16.0133 22.8366 16.3261 22.9047 16.6038 22.9431C16.8816 22.9807 17.1675 23.0001 17.4614 23.0001C18.4631 23.0001 19.4761 22.7222 20.4997 22.1669C21.5993 21.5572 22.2634 20.98 22.4921 20.4351C22.6124 20.1631 22.7263 19.7901 22.8352 19.3163C22.9444 18.8426 22.9986 18.4589 22.9986 18.1648C22.999 18.0118 22.9826 17.8977 22.9497 17.8208Z" fill="white"/>
</svg>
