<svg width="20" height="17" viewBox="0 0 20 17" fill="none" xmlns="http://www.w3.org/2000/svg">
<path d="M10.1099 3.0078C13.4799 3.04087 15.591 2.83119 15.8762 6.56643H19.9856C19.9856 0.779959 14.9391 0 10.003 0C5.06646 0 0.0202637 0.779959 0.0202637 6.56643H4.09783C4.41332 2.76 6.76797 2.97512 10.1099 3.0078Z" fill="white"/>
<path d="M2.05823 8.4269C3.05915 8.4269 3.89201 8.48681 4.07718 7.50223C4.10208 7.36841 4.11647 7.2167 4.11647 7.04126H4.06901H0C0 8.50587 0.921557 8.4269 2.05823 8.4269Z" fill="white"/>
<path d="M15.9025 7.04126H15.864C15.864 7.21787 15.8792 7.36997 15.9076 7.50223C16.1029 8.41017 16.9346 8.35377 17.932 8.35377C19.0741 8.35377 19.9999 8.42885 19.9999 7.04126H15.9025Z" fill="white"/>
<path d="M13.8951 6.0436V5.46164C13.8951 5.2014 13.5952 5.18506 13.2248 5.18506H12.6199C12.25 5.18506 11.9501 5.2014 11.9501 5.46164V5.96307V6.35208H7.67098V5.96307V5.46164C7.67098 5.2014 7.37105 5.18506 7.00111 5.18506H6.39581C6.02587 5.18506 5.72594 5.2014 5.72594 5.46164V6.0436V6.55164C4.75109 7.56461 1.56124 11.8768 1.44531 12.3988L1.44687 15.8824C1.44687 16.2041 1.70867 16.4659 2.03038 16.4659H17.5906C17.9124 16.4659 18.1742 16.2041 18.1742 15.8824V12.3813C18.0594 11.8744 14.8703 7.56422 13.8951 6.55125V6.0436ZM7.46013 12.8676C7.14698 12.8676 6.89296 12.6139 6.89296 12.3004C6.89296 11.9868 7.14698 11.7332 7.46013 11.7332C7.77328 11.7332 8.02731 11.9868 8.02731 12.3004C8.02731 12.6139 7.77328 12.8676 7.46013 12.8676ZM7.46013 10.9225C7.14698 10.9225 6.89296 10.6689 6.89296 10.3553C6.89296 10.0418 7.14698 9.78817 7.46013 9.78817C7.77328 9.78817 8.02731 10.0418 8.02731 10.3553C8.02731 10.6689 7.77328 10.9225 7.46013 10.9225ZM7.46013 8.97787C7.14698 8.97787 6.89296 8.72424 6.89296 8.4107C6.89296 8.09755 7.14698 7.84353 7.46013 7.84353C7.77328 7.84353 8.02731 8.09755 8.02731 8.4107C8.02731 8.72424 7.77328 8.97787 7.46013 8.97787ZM9.79418 12.8676C9.48102 12.8676 9.227 12.6139 9.227 12.3004C9.227 11.9868 9.48102 11.7332 9.79418 11.7332C10.1077 11.7332 10.3613 11.9868 10.3613 12.3004C10.3613 12.6139 10.1077 12.8676 9.79418 12.8676ZM9.79418 10.9225C9.48102 10.9225 9.227 10.6689 9.227 10.3553C9.227 10.0418 9.48102 9.78817 9.79418 9.78817C10.1077 9.78817 10.3613 10.0418 10.3613 10.3553C10.3613 10.6689 10.1077 10.9225 9.79418 10.9225ZM9.79418 8.97787C9.48102 8.97787 9.227 8.72424 9.227 8.4107C9.227 8.09755 9.48102 7.84353 9.79418 7.84353C10.1077 7.84353 10.3613 8.09755 10.3613 8.4107C10.3613 8.72424 10.1077 8.97787 9.79418 8.97787ZM12.1282 12.8676C11.8147 12.8676 11.561 12.6139 11.561 12.3004C11.561 11.9868 11.8147 11.7332 12.1282 11.7332C12.4418 11.7332 12.6954 11.9868 12.6954 12.3004C12.6954 12.6139 12.4418 12.8676 12.1282 12.8676ZM12.1282 10.9225C11.8147 10.9225 11.561 10.6689 11.561 10.3553C11.561 10.0418 11.8147 9.78817 12.1282 9.78817C12.4418 9.78817 12.6954 10.0418 12.6954 10.3553C12.6954 10.6689 12.4418 10.9225 12.1282 10.9225ZM12.1282 8.97787C11.8147 8.97787 11.561 8.72424 11.561 8.4107C11.561 8.09755 11.8147 7.84353 12.1282 7.84353C12.4418 7.84353 12.6954 8.09755 12.6954 8.4107C12.6954 8.72424 12.4418 8.97787 12.1282 8.97787Z" fill="white"/>
</svg>
