<svg width="26" height="26" viewBox="0 0 26 26" fill="none" xmlns="http://www.w3.org/2000/svg">
<path d="M22.6419 24.7182L22.642 24.7183C22.9198 24.9969 23.2934 25.15 23.6916 25.15C24.0686 25.15 24.4278 25.0111 24.701 24.7572C25.2831 24.2164 25.302 23.3173 24.7414 22.7544L24.6351 22.8602L24.7414 22.7543L18.9229 16.9119C20.4096 15.1567 21.2234 12.9677 21.2234 10.69C21.2234 5.25924 16.6487 0.85 11.0367 0.85C5.42472 0.85 0.85 5.25924 0.85 10.69C0.85 16.1207 5.42472 20.53 11.0367 20.53C13.1018 20.53 15.0728 19.9405 16.7677 18.8199L22.6419 24.7182ZM11.0367 3.67782C15.0495 3.67782 18.3051 6.82846 18.3051 10.69C18.3051 14.5515 15.0495 17.7022 11.0367 17.7022C7.02391 17.7022 3.76827 14.5515 3.76827 10.69C3.76827 6.82846 7.02391 3.67782 11.0367 3.67782Z" fill="white" stroke="white" stroke-width="0.3"/>
</svg>
