<svg width="28" height="26" viewBox="0 0 28 26" fill="none" xmlns="http://www.w3.org/2000/svg">
<path d="M9.07812 17.1018H23.8987C24.2657 17.1018 24.5876 16.8591 24.6869 16.5066L27.9684 5.02203C28.0389 4.77444 27.9906 4.50848 27.8353 4.30276C27.6798 4.09769 27.438 3.97656 27.1799 3.97656H7.18436L6.59796 1.33789C6.51465 0.962128 6.1814 0.695312 5.79688 0.695312H0.820312C0.367004 0.695312 0 1.06232 0 1.51562C0 1.96915 0.367004 2.33594 0.820312 2.33594H5.13849L8.1008 15.666C7.22922 16.045 6.61719 16.9125 6.61719 17.9221C6.61719 19.279 7.72119 20.383 9.07812 20.383H23.8987C24.3522 20.383 24.719 20.0162 24.719 19.5627C24.719 19.1094 24.3522 18.7424 23.8987 18.7424H9.07812C8.62631 18.7424 8.25781 18.3748 8.25781 17.9221C8.25781 17.4694 8.62631 17.1018 9.07812 17.1018Z" fill="white"/>
<path d="M8.25781 22.844C8.25781 24.2011 9.36182 25.3049 10.719 25.3049C12.0759 25.3049 13.1799 24.2011 13.1799 22.844C13.1799 21.4871 12.0759 20.3831 10.719 20.3831C9.36182 20.3831 8.25781 21.4871 8.25781 22.844Z" fill="white"/>
<path d="M19.7969 22.844C19.7969 24.2011 20.9009 25.3049 22.2578 25.3049C23.615 25.3049 24.7188 24.2011 24.7188 22.844C24.7188 21.4871 23.615 20.3831 22.2578 20.3831C20.9009 20.3831 19.7969 21.4871 19.7969 22.844Z" fill="white"/>
</svg>
